<svg width="60" height="24" viewBox="0 0 60 24" fill="none" xmlns="http://www.w3.org/2000/svg">
<path d="M14.963 10.729C15.0412 12.0755 14.9936 13.4263 14.821 14.764C13.924 14.918 12.978 15 12 15C11.0544 15 10.1105 14.921 9.17799 14.764C9.00151 13.4267 8.95429 12.0754 9.03699 10.729C9.98299 10.906 10.977 11 12 11C12.9939 11.0019 13.9859 10.9112 14.963 10.729Z" fill="#DA4B4B"/>
<path d="M14.427 16.845C14.2711 17.4733 14.0703 18.0895 13.826 18.689C13.479 19.527 13.097 20.144 12.735 20.535C12.365 20.935 12.111 21 12 21C11.889 21 11.636 20.935 11.265 20.535C10.903 20.145 10.521 19.527 10.174 18.689C9.92971 18.0895 9.72886 17.4733 9.57299 16.845C10.361 16.947 11.173 17 12 17C12.8115 17.0002 13.6221 16.9484 14.427 16.845Z" fill="#DA4B4B"/>
<path d="M21.066 7.77501C21.526 8.76101 21.831 9.83501 21.946 10.964C21.445 11.637 20.769 12.266 19.93 12.824C19.06 13.404 18.034 13.894 16.891 14.261C17.0212 12.9164 17.0353 11.563 16.933 10.216C17.877 9.90188 18.7782 9.47157 19.616 8.93501C20.138 8.59937 20.6239 8.21063 21.066 7.77501Z" fill="#DA4B4B"/>
<path fill-rule="evenodd" clip-rule="evenodd" d="M21.815 13.925C21.446 15.8013 20.5474 17.5326 19.2254 18.9142C17.9033 20.2958 16.2132 21.2698 14.355 21.721C14.865 21.119 15.307 20.339 15.674 19.454C16.039 18.574 16.344 17.553 16.57 16.434C18.247 16.002 19.766 15.338 21.04 14.489C21.308 14.3097 21.5663 14.1217 21.815 13.925ZM2.18499 13.925C2.43366 14.1217 2.69199 14.3097 2.95999 14.489C4.23299 15.338 5.75199 16.002 7.42999 16.434C7.65499 17.553 7.95999 18.574 8.32599 19.454C8.69199 20.338 9.13399 21.119 9.64399 21.721C7.78596 21.2696 6.09607 20.2956 4.77422 18.914C3.45237 17.5324 2.55387 15.8012 2.18499 13.925ZM12 3.00001C12.11 3.00001 12.364 3.06601 12.735 3.46601C13.097 3.85601 13.479 4.47401 13.826 5.31201C14.216 6.25501 14.54 7.42001 14.748 8.73301C13.886 8.90601 12.963 9.00001 12 9.00001C11.0771 9.00183 10.1563 8.9124 9.25099 8.73301C9.45899 7.42001 9.78299 6.25501 10.174 5.31301C10.521 4.47401 10.903 3.85701 11.264 3.46601C11.636 3.06601 11.889 3.00001 12 3.00001ZM14.355 2.27901C16.6089 2.82583 18.6027 4.1391 19.995 5.99401C19.5692 6.48431 19.0743 6.91009 18.526 7.25801C17.9465 7.63019 17.329 7.9396 16.684 8.18101C16.453 6.82001 16.104 5.58601 15.674 4.54701C15.307 3.66201 14.866 2.88101 14.355 2.27901ZM9.64499 2.27901C9.13499 2.88101 8.69299 3.66201 8.32599 4.54701C7.89599 5.58701 7.54599 6.82001 7.31599 8.18101C6.67097 7.9396 6.05349 7.63019 5.47399 7.25801C4.9253 6.91017 4.43012 6.48438 4.00399 5.99401C5.39655 4.13891 7.3907 2.82561 9.64499 2.27901Z" fill="#DCC0C0"/>
<path d="M2.93399 7.77501C3.36399 8.20201 3.85399 8.59001 4.38399 8.93501C5.22177 9.47157 6.12302 9.90188 7.06699 10.216C6.96487 11.563 6.97858 12.9163 7.10799 14.261C5.96499 13.894 4.93899 13.405 4.06899 12.825C3.23099 12.266 2.55499 11.637 2.05299 10.964C2.16899 9.83401 2.47299 8.76101 2.93299 7.77401L2.93399 7.77501Z" fill="#DA4B4B"/>
<path d="M24.5 14H25.25V14.75H24.5V14ZM23.75 14H24.5V14.75H23.75V14ZM23.75 14.75H24.5V15.5H23.75V14.75ZM24.5 14.75H25.25V15.5H24.5V14.75ZM25.25 14H26V14.75H25.25V14ZM26 14H26.75V14.75H26V14ZM26.75 14H27.5V14.75H26.75V14ZM26.75 14.75H27.5V15.5H26.75V14.75ZM26 14.75H26.75V15.5H26V14.75ZM27.5 14.75H28.25V15.5H27.5V14.75ZM27.5 15.5H28.25V16.25H27.5V15.5ZM27.5 18.5H28.25V19.25H27.5V18.5ZM26.75 18.5H27.5V19.25H26.75V18.5ZM26.75 15.5H27.5V16.25H26.75V15.5ZM26 18.5H26.75V19.25H26V18.5ZM26.75 19.25H27.5V20H26.75V19.25ZM26 19.25H26.75V20H26V19.25ZM25.25 19.25H26V20H25.25V19.25ZM24.5 19.25H25.25V20H24.5V19.25ZM23.75 19.25H24.5V20H23.75V19.25ZM23.75 18.5H24.5V19.25H23.75V18.5ZM24.5 18.5H25.25V19.25H24.5V18.5ZM23.75 17.75H24.5V18.5H23.75V17.75ZM23 18.5H23.75V19.25H23V18.5ZM23 17.75H23.75V18.5H23V17.75ZM23 17H23.75V17.75H23V17ZM23 16.25H23.75V17H23V16.25ZM23 15.5H23.75V16.25H23V15.5ZM23 14.75H23.75V15.5H23V14.75ZM23.75 15.5H24.5V16.25H23.75V15.5ZM23.75 16.25H24.5V17H23.75V16.25ZM23.75 17H24.5V17.75H23.75V17ZM25.25 18.5H26V19.25H25.25V18.5ZM25.25 14.75H26V15.5H25.25V14.75ZM26.75 16.25H27.5V17H26.75V16.25ZM27.5 16.25H28.25V17H27.5V16.25ZM24.5 17H25.25V17.75H24.5V17ZM25.25 17H26V17.75H25.25V17ZM26 17H26.75V17.75H26V17ZM26.75 17H27.5V17.75H26.75V17ZM27.5 17H28.25V17.75H27.5V17ZM26 16.25H26.75V17H26V16.25ZM25.25 16.25H26V17H25.25V16.25ZM24.5 16.25H25.25V17H24.5V16.25ZM29.002 18.5H29.752V19.25H29.002V18.5ZM29.002 17.75H29.752V18.5H29.002V17.75ZM29.752 17.75H30.502V18.5H29.752V17.75ZM29.752 18.5H30.502V19.25H29.752V18.5ZM29.752 17H30.502V17.75H29.752V17ZM30.502 17H31.252V17.75H30.502V17ZM32.002 17H32.752V17.75H32.002V17ZM32.752 17H33.502V17.75H32.752V17ZM32.752 18.5H33.502V19.25H32.752V18.5ZM33.502 18.5H34.252V19.25H33.502V18.5ZM33.502 17.75H34.252V18.5H33.502V17.75ZM30.502 16.25H31.252V17H30.502V16.25ZM31.252 16.25H32.002V17H31.252V16.25ZM32.002 16.25H32.752V17H32.002V16.25ZM32.002 15.5H32.752V16.25H32.002V15.5ZM32.752 15.5H33.502V16.25H32.752V15.5ZM32.752 14.75H33.502V15.5H32.752V14.75ZM32.752 14H33.502V14.75H32.752V14ZM33.502 14H34.252V14.75H33.502V14ZM33.502 14.75H34.252V15.5H33.502V14.75ZM30.502 15.5H31.252V16.25H30.502V15.5ZM29.752 15.5H30.502V16.25H29.752V15.5ZM29.752 14.75H30.502V15.5H29.752V14.75ZM29.752 14H30.502V14.75H29.752V14ZM29.002 14H29.752V14.75H29.002V14ZM29.002 14.75H29.752V15.5H29.002V14.75ZM30.502 17.75H31.252V18.5H30.502V17.75ZM32.002 17.75H32.752V18.5H32.002V17.75ZM32.752 17.75H33.502V18.5H32.752V17.75ZM30.502 14.75H31.252V15.5H30.502V14.75ZM32.002 14.75H32.752V15.5H32.002V14.75ZM31.252 15.5H32.002V16.25H31.252V15.5ZM31.252 17H32.002V17.75H31.252V17ZM29.002 19.25H29.752V20H29.002V19.25ZM29.752 19.25H30.502V20H29.752V19.25ZM32.752 19.25H33.502V20H32.752V19.25ZM33.502 19.25H34.252V20H33.502V19.25ZM38.0039 18.5H38.7539V19.25H38.0039V18.5ZM38.0039 19.25H38.7539V20H38.0039V19.25ZM37.2539 19.25H38.0039V20H37.2539V19.25ZM37.2539 18.5H38.0039V19.25H37.2539V18.5ZM36.5039 19.25H37.2539V20H36.5039V19.25ZM36.5039 18.5H37.2539V19.25H36.5039V18.5ZM35.7539 18.5H36.5039V19.25H35.7539V18.5ZM35.7539 17.75H36.5039V18.5H35.7539V17.75ZM35.7539 17H36.5039V17.75H35.7539V17ZM35.7539 16.25H36.5039V17H35.7539V16.25ZM35.7539 15.5H36.5039V16.25H35.7539V15.5ZM35.7539 14.75H36.5039V15.5H35.7539V14.75ZM36.5039 17H37.2539V17.75H36.5039V17ZM36.5039 17.75H37.2539V18.5H36.5039V17.75ZM36.5039 16.25H37.2539V17H36.5039V16.25ZM36.5039 15.5H37.2539V16.25H36.5039V15.5ZM36.5039 12.5H37.2539V13.25H36.5039V12.5ZM36.5039 13.25H37.2539V14H36.5039V13.25ZM36.5039 14H37.2539V14.75H36.5039V14ZM36.5039 14.75H37.2539V15.5H36.5039V14.75ZM35.7539 14H36.5039V14.75H35.7539V14ZM35.0039 14.75H35.7539V15.5H35.0039V14.75ZM37.2539 14.75H38.0039V15.5H37.2539V14.75ZM38.0039 14.75H38.7539V15.5H38.0039V14.75ZM35.7539 13.25H36.5039V14H35.7539V13.25ZM35.0039 15.5H35.7539V16.25H35.0039V15.5ZM37.2539 15.5H38.0039V16.25H37.2539V15.5ZM38.0039 15.5H38.7539V16.25H38.0039V15.5ZM41.002 14H41.752V14.75H41.002V14ZM40.252 14H41.002V14.75H40.252V14ZM40.252 14.75H41.002V15.5H40.252V14.75ZM41.002 14.75H41.752V15.5H41.002V14.75ZM41.752 14H42.502V14.75H41.752V14ZM42.502 14H43.252V14.75H42.502V14ZM43.252 14H44.002V14.75H43.252V14ZM43.252 14.75H44.002V15.5H43.252V14.75ZM42.502 14.75H43.252V15.5H42.502V14.75ZM43.252 16.25H44.002V17H43.252V16.25ZM44.002 14.75H44.752V15.5H44.002V14.75ZM44.002 15.5H44.752V16.25H44.002V15.5ZM44.002 16.25H44.752V17H44.002V16.25ZM44.002 17H44.752V17.75H44.002V17ZM44.002 17.75H44.752V18.5H44.002V17.75ZM44.002 18.5H44.752V19.25H44.002V18.5ZM43.252 18.5H44.002V19.25H43.252V18.5ZM43.252 17.75H44.002V18.5H43.252V17.75ZM43.252 17H44.002V17.75H43.252V17ZM43.252 15.5H44.002V16.25H43.252V15.5ZM42.502 18.5H43.252V19.25H42.502V18.5ZM43.252 19.25H44.002V20H43.252V19.25ZM42.502 19.25H43.252V20H42.502V19.25ZM41.752 19.25H42.502V20H41.752V19.25ZM41.002 19.25H41.752V20H41.002V19.25ZM40.252 19.25H41.002V20H40.252V19.25ZM40.252 18.5H41.002V19.25H40.252V18.5ZM41.002 18.5H41.752V19.25H41.002V18.5ZM40.252 17.75H41.002V18.5H40.252V17.75ZM39.502 18.5H40.252V19.25H39.502V18.5ZM39.502 17.75H40.252V18.5H39.502V17.75ZM39.502 17H40.252V17.75H39.502V17ZM39.502 16.25H40.252V17H39.502V16.25ZM39.502 15.5H40.252V16.25H39.502V15.5ZM39.502 14.75H40.252V15.5H39.502V14.75ZM40.252 15.5H41.002V16.25H40.252V15.5ZM40.252 16.25H41.002V17H40.252V16.25ZM40.252 17H41.002V17.75H40.252V17ZM41.752 18.5H42.502V19.25H41.752V18.5ZM41.752 14.75H42.502V15.5H41.752V14.75ZM45.5039 14.75H46.2539V15.5H45.5039V14.75ZM45.5039 14H46.2539V14.75H45.5039V14ZM46.2539 14H47.0039V14.75H46.2539V14ZM46.2539 14.75H47.0039V15.5H46.2539V14.75ZM46.2539 15.5H47.0039V16.25H46.2539V15.5ZM46.2539 16.25H47.0039V17H46.2539V16.25ZM46.2539 17H47.0039V17.75H46.2539V17ZM45.5039 17H46.2539V17.75H45.5039V17ZM45.5039 16.25H46.2539V17H45.5039V16.25ZM45.5039 15.5H46.2539V16.25H45.5039V15.5ZM45.5039 17.75H46.2539V18.5H45.5039V17.75ZM46.2539 17.75H47.0039V18.5H46.2539V17.75ZM46.2539 18.5H47.0039V19.25H46.2539V18.5ZM46.2539 19.25H47.0039V20H46.2539V19.25ZM45.5039 19.25H46.2539V20H45.5039V19.25ZM45.5039 18.5H46.2539V19.25H45.5039V18.5ZM47.0039 14.75H47.7539V15.5H47.0039V14.75ZM47.7539 14.75H48.5039V15.5H47.7539V14.75ZM48.5039 14.75H49.2539V15.5H48.5039V14.75ZM48.5039 14H49.2539V14.75H48.5039V14ZM47.7539 14H48.5039V14.75H47.7539V14ZM47.0039 15.5H47.7539V16.25H47.0039V15.5ZM49.2539 14.75H50.0039V15.5H49.2539V14.75ZM48.5039 15.5H49.2539V16.25H48.5039V15.5ZM50.7539 12.5H52.2539V14H50.7539V12.5ZM50.7539 14.75H52.2539V20H50.7539V14.75ZM57.5098 20H56.7598V19.25H57.5098V20ZM57.5098 19.25H56.7598V18.5H57.5098V19.25ZM56.7598 19.25H56.0098V18.5H56.7598V19.25ZM56.0098 20H55.2598V19.25H56.0098V20ZM55.2598 20H54.5098V19.25H55.2598V20ZM54.5098 20H53.7598V19.25H54.5098V20ZM54.5098 19.25H53.7598V18.5H54.5098V19.25ZM55.2598 19.25H54.5098V18.5H55.2598V19.25ZM53.7598 19.25H53.0098V18.5H53.7598V19.25ZM53.7598 18.5H53.0098V17.75H53.7598V18.5ZM53.7598 15.5H53.0098V14.75H53.7598V15.5ZM54.5098 15.5H53.7598V14.75H54.5098V15.5ZM54.5098 18.5H53.7598V17.75H54.5098V18.5ZM55.2598 15.5H54.5098V14.75H55.2598V15.5ZM54.5098 14.75H53.7598V14H54.5098V14.75ZM55.2598 14.75H54.5098V14H55.2598V14.75ZM56.0098 14.75H55.2598V14H56.0098V14.75ZM56.7598 14.75H56.0098V14H56.7598V14.75ZM57.5098 14.75H56.7598V14H57.5098V14.75ZM57.5098 15.5H56.7598V14.75H57.5098V15.5ZM56.7598 15.5H56.0098V14.75H56.7598V15.5ZM57.5098 16.25H56.7598V15.5H57.5098V16.25ZM58.2598 15.5H57.5098V14.75H58.2598V15.5ZM58.2598 16.25H57.5098V15.5H58.2598V16.25ZM58.2598 17H57.5098V16.25H58.2598V17ZM58.2598 17.75H57.5098V17H58.2598V17.75ZM58.2598 18.5H57.5098V17.75H58.2598V18.5ZM58.2598 19.25H57.5098V18.5H58.2598V19.25ZM57.5098 18.5H56.7598V17.75H57.5098V18.5ZM57.5098 17.75H56.7598V17H57.5098V17.75ZM57.5098 17H56.7598V16.25H57.5098V17ZM56.0098 15.5H55.2598V14.75H56.0098V15.5ZM56.0098 19.25H55.2598V18.5H56.0098V19.25ZM57.5098 19.25H58.2598V20H57.5098V19.25ZM56.0098 16.25H56.7598V17H56.0098V16.25ZM55.2598 16.25H56.0098V17H55.2598V16.25ZM54.5098 16.25H55.2598V17H54.5098V16.25ZM53.7598 16.25H54.5098V17H53.7598V16.25ZM53.0098 17H53.7598V17.75H53.0098V17ZM53.7598 17H54.5098V17.75H53.7598V17ZM56.0098 17H56.7598V17.75H56.0098V17ZM55.2598 17H56.0098V17.75H55.2598V17ZM54.5098 17H55.2598V17.75H54.5098V17Z" fill="#DA4B4B"/>
</svg>
